<svg width="176" height="44" viewBox="0 0 176 44" fill="none" xmlns="http://www.w3.org/2000/svg">
<g clip-path="url(#clip0_2454_20692)">
<path d="M39.4587 2.51614C39.7132 2.60574 39.9348 2.76962 40.0951 2.98659C40.2554 3.20355 40.3469 3.46361 40.3577 3.73314C40.4959 5.17248 40.5549 6.61834 40.5342 8.06415C40.519 8.72741 40.5038 9.39067 40.4597 10.0539C40.2102 9.95049 39.9744 9.84704 39.7234 9.74968C39.0906 9.5002 38.4714 9.26442 37.8371 9.04232C37.8523 8.7046 37.8675 8.38056 37.8675 8.04132C37.8812 6.9658 37.8523 5.87506 37.764 4.77064C36.7326 4.44661 35.6571 4.15149 34.5694 3.88679C33.2003 3.56276 31.8312 3.29655 30.4438 3.10488C29.6634 3.00295 28.9119 2.91319 28.1908 2.84017C27.4697 2.76715 26.7015 2.72303 25.9211 2.68805C25.3126 2.67283 24.7421 2.65914 24.1245 2.65914L23.2255 2.67284C22.9593 2.67284 22.6504 2.68805 22.3264 2.68805C21.546 2.71847 20.7945 2.77628 20.0567 2.84017C19.3189 2.90406 18.5841 3.00295 17.8037 3.10488C16.4346 3.29655 15.0487 3.56124 13.6781 3.88679C12.5873 4.15149 11.527 4.44661 10.4835 4.77064C10.304 7.19227 10.3682 9.62581 10.6752 12.0346C10.8381 13.3821 11.0742 14.7197 11.3825 16.0416C11.559 16.7931 11.7659 17.5446 11.991 18.2656L12.0063 18.325L12.0199 18.3843L12.0352 18.4436L12.0641 18.5014L12.0793 18.5608L12.0944 18.6201L12.1097 18.6794L12.1675 18.8407V18.8559L12.1827 18.9137L12.2862 19.1936L12.2998 19.2529L12.3896 19.4887L12.4033 19.5329C12.8583 20.8521 13.385 22.1456 13.9808 23.4075L14.0097 23.4516L14.025 23.4972L14.0386 23.5261L14.069 23.5703L14.0828 23.6144L14.098 23.6585L14.1269 23.6874C14.349 24.1437 14.5833 24.6001 14.8206 25.0565C14.997 25.3516 15.1582 25.665 15.321 25.9404C15.5127 26.2801 15.6897 26.5747 15.852 26.8242C16.3524 27.635 16.8818 28.4306 17.4432 29.1974C18.0045 29.9641 18.5765 30.7003 19.2109 31.4366C19.4472 31.7165 19.7124 32.0111 20.0065 32.3205C20.2864 32.6247 20.5511 32.929 20.8021 33.1891C21.4502 33.8524 22.1271 34.4867 22.8056 35.1044L23.0855 35.3402C22.8938 35.4923 22.7022 35.6444 22.4968 35.7965C21.9659 36.1936 21.4213 36.5769 20.8751 36.9603C17.9315 34.3214 15.399 31.2572 13.3617 27.8693V27.8541L13.3464 27.8404L13.3313 27.8252C13.2141 27.6335 13.1106 27.4418 13.0072 27.2806C12.8307 26.9565 12.639 26.631 12.4778 26.3222C11.991 25.4383 11.5484 24.5256 11.1224 23.5672C10.6965 22.6088 10.3268 21.6672 9.98757 20.724C9.51369 19.3907 9.11044 18.0334 8.77963 16.6577C7.77876 12.425 7.48024 8.05659 7.89585 3.72706C7.90831 3.45713 8.00213 3.19729 8.16504 2.9817C8.32795 2.76612 8.55233 2.60488 8.8086 2.51919C10.2081 2.0476 11.6381 1.63534 13.0818 1.28089C14.4965 0.956863 15.9539 0.672392 17.4432 0.456375C18.2038 0.35293 19.004 0.264699 19.8438 0.191679C20.6546 0.117138 21.4502 0.0593291 22.2306 0.0289041C22.5257 0.0289041 22.839 0.0136953 23.1737 0.0136953L24.1321 0L25.089 0.0136953C25.4283 0.0136953 25.7522 0.0289041 26.0321 0.0289041C26.8278 0.0593291 27.6234 0.117138 28.4342 0.191679C29.2739 0.264699 30.0695 0.35293 30.821 0.456375C32.3225 0.676956 33.7814 0.956863 35.1962 1.28089C36.6262 1.63534 38.0546 2.04152 39.4694 2.51919L39.4587 2.51614ZM30.8241 29.1989C31.355 28.4474 31.8889 27.6776 32.3712 26.885C32.5376 26.5862 32.8107 26.361 33.1357 26.2544C33.4608 26.1478 33.8141 26.1677 34.1252 26.31C36.6854 27.5337 39.0095 29.1997 40.9906 31.2313C41.2224 31.4449 41.3715 31.7334 41.4118 32.0461C41.4522 32.3587 41.3812 32.6756 41.2112 32.9411C40.799 33.5892 40.3426 34.2661 39.8862 34.9294C39.4298 35.5927 38.9278 36.2407 38.4425 36.8599C38.0881 37.3163 37.7047 37.7878 37.2924 38.2594C36.9395 38.6717 36.541 39.1281 36.0998 39.6149C35.4807 40.2933 34.8828 40.911 34.2743 41.5149H34.2591C33.6704 42.1052 33.0421 42.6802 32.388 43.2537C32.195 43.4417 31.9501 43.5675 31.6849 43.615C31.4197 43.6624 31.1463 43.6293 30.9001 43.5199C28.9609 42.6297 27.0938 41.5901 25.3156 40.4105C25.5514 40.234 25.7872 40.0576 26.023 39.8659C26.5235 39.4673 27.0255 39.0703 27.4956 38.6489C28.6972 39.4126 29.9421 40.106 31.2242 40.7254C31.6212 40.3572 32.0046 39.9891 32.4031 39.6057C33.0208 38.9972 33.5958 38.4131 34.1267 37.8228C34.4796 37.4547 34.8478 37.0135 35.2616 36.5419C35.6145 36.1145 35.9827 35.6718 36.3371 35.2017C36.8224 34.6115 37.265 34.0075 37.6925 33.3884C37.9283 33.0841 38.1489 32.7403 38.3695 32.4163C37.7064 31.7805 36.997 31.1948 36.2473 30.6638C35.5372 30.1489 34.7944 29.6809 34.0233 29.2628C33.6841 29.7785 33.3311 30.2805 32.9766 30.7658C32.359 31.6207 31.7247 32.4163 31.0766 33.183C30.7815 33.5207 30.5016 33.8311 30.2369 34.1262C30.1182 34.2783 29.9859 34.4061 29.8535 34.5521L29.8383 34.5674L29.8247 34.5826L29.8094 34.5963L29.7942 34.6115L29.7805 34.6267L29.7653 34.6419L29.7501 34.6556L29.7212 34.686V34.6997C28.3144 36.1815 26.8029 37.5602 25.1985 38.8253C22.774 40.687 20.1438 42.2642 17.3595 43.526C17.1065 43.6395 16.8245 43.6721 16.5522 43.6193C16.2799 43.5664 16.0306 43.4308 15.8383 43.2309C15.1887 42.6711 14.5848 42.096 13.9808 41.521C13.3723 40.9323 12.773 40.304 12.1553 39.6209C11.699 39.1341 11.3019 38.6778 10.9474 38.2655C10.5504 37.7939 10.167 37.3223 9.7989 36.866C9.3121 36.2331 8.84052 35.5988 8.36894 34.9355C7.89735 34.2722 7.45619 33.5953 7.04393 32.9472C6.71839 32.4315 6.38062 31.8823 6.04138 31.3119C5.73713 30.7521 5.42223 30.1922 5.12863 29.6385C4.7468 28.9311 4.39237 28.2085 4.05313 27.4875C3.71389 26.7664 3.4203 26.0423 3.11149 25.2908C2.55167 23.9217 2.06488 22.5221 1.63741 21.0921C1.20994 19.6622 0.857005 18.22 0.572532 16.7611C0.517153 16.4924 0.547032 16.2131 0.658028 15.9622C0.769023 15.7113 0.95557 15.5013 1.19165 15.3616C2.90697 14.1423 4.71461 13.0585 6.59818 12.1198C6.6712 12.8272 6.76093 13.5194 6.87807 14.2115C6.90697 14.4473 6.95109 14.6831 6.99521 14.9189C5.74477 15.5729 4.53475 16.3014 3.37162 17.1004C3.60741 18.2048 3.88731 19.2803 4.19612 20.3269C4.59469 21.6824 5.06633 23.0074 5.58203 24.2822C5.86194 24.9744 6.15553 25.6665 6.47956 26.3587C6.80358 27.0509 7.12911 27.7278 7.48204 28.3774C7.76195 28.9235 8.0571 29.4423 8.35222 29.9686C8.64583 30.4554 8.96072 30.9711 9.29387 31.5157C9.70765 32.1638 10.1199 32.7981 10.5473 33.3869C10.9748 33.9756 11.4312 34.6039 11.9028 35.2002C12.2709 35.6703 12.6239 36.1129 12.992 36.5404C13.3906 37.012 13.7739 37.4532 14.1117 37.8213C14.6578 38.4116 15.2313 39.0003 15.8505 39.6042C16.2338 39.9876 16.6324 40.3557 17.0142 40.7102C19.2311 39.6438 21.334 38.3553 23.2909 36.8644C26.1588 34.6896 28.695 32.1089 30.8196 29.2034L30.8241 29.1989ZM47.0467 15.3555C47.282 15.4968 47.4686 15.7064 47.5817 15.9564C47.6947 16.2065 47.7289 16.4851 47.6796 16.755C47.3845 18.2139 47.0315 19.6576 46.604 21.086C46.1765 22.5145 45.6913 23.9156 45.1452 25.2847C45.0898 25.4213 45.0098 25.5466 44.9093 25.6544C44.6782 25.9223 44.3509 26.0886 43.9981 26.117C43.6454 26.1455 43.2957 26.0339 43.0245 25.8065C42.029 24.9399 40.9754 24.1424 39.871 23.4196C38.7858 22.7098 37.6534 22.075 36.4816 21.5196C36.1743 21.381 35.9299 21.1324 35.7964 20.8228C35.663 20.5132 35.6503 20.1648 35.7606 19.8462C36.2013 18.6064 36.57 17.3422 36.865 16.0598C36.9973 15.5593 37.1008 15.0573 37.2042 14.5386C37.5434 14.6709 37.8675 14.8048 38.2068 14.9508C38.7072 15.1729 39.2077 15.4072 39.7082 15.6445C39.6352 15.9975 39.5561 16.3367 39.4724 16.6759C39.2381 17.6632 38.9719 18.6536 38.6631 19.6226C39.5759 20.0942 40.4749 20.6236 41.3435 21.1834C42.0068 21.6261 42.6701 22.0961 43.3044 22.5829C43.5691 21.8467 43.8201 21.0952 44.0407 20.33C44.3647 19.2834 44.6294 18.2002 44.8804 17.1034C42.947 15.7814 40.8892 14.6513 38.7361 13.7293C37.41 13.1562 36.0524 12.6589 34.6698 12.24C33.4065 11.8584 32.1225 11.5486 30.8241 11.312C29.9113 11.1508 28.9682 11.0184 28.0098 10.915C27.0514 10.8115 26.1097 10.7522 25.1666 10.7233L24.6372 10.7081H23.6058L23.0901 10.7233C22.1469 10.7522 21.1885 10.8115 20.2453 10.915C19.3021 11.0184 18.3453 11.1508 17.4173 11.312C16.1349 11.5478 14.854 11.8718 13.5716 12.24C13.0848 12.3921 12.5995 12.5442 12.1127 12.7116C12.0686 12.4317 12.0245 12.167 11.9956 11.887C11.9073 11.2542 11.8435 10.6351 11.8039 10.0007C15.779 8.68644 19.9393 8.01874 24.1261 8.02307C29.3048 8.03017 34.4331 9.04066 39.2275 10.9986C41.9925 12.1508 44.6173 13.614 47.0512 15.3601L47.0467 15.3555ZM22.4998 27.0098C22.2793 26.7299 22.0876 26.4789 21.9111 26.2583C20.5092 24.339 19.3188 22.2738 18.3605 20.0988C18.2282 19.8051 18.0943 19.51 17.9772 19.2149C17.86 18.9198 17.7703 18.6703 17.6729 18.3904C17.6308 18.2931 17.6011 18.1909 17.5847 18.0861C17.5533 17.9129 17.5567 17.7351 17.5947 17.5632C17.6327 17.3912 17.7046 17.2286 17.8061 17.0848C17.9076 16.9409 18.0368 16.8187 18.1861 16.7252C18.3353 16.6318 18.5016 16.569 18.6754 16.5405C18.9553 16.4812 19.2839 16.4371 19.6185 16.3884L20.5754 16.2545C21.1657 16.1967 21.7544 16.1526 22.3583 16.1024C22.9623 16.0522 23.5753 16.0583 24.1275 16.0583C24.6798 16.0583 25.2761 16.072 25.9089 16.1024C26.5174 16.1465 27.1032 16.1907 27.6782 16.2545L28.635 16.3884C28.9894 16.4325 29.2983 16.4767 29.5934 16.5405C29.6686 16.5527 29.7425 16.572 29.814 16.5984C30.1474 16.7187 30.4197 16.966 30.5716 17.2863C30.7235 17.6066 30.7426 17.9739 30.6248 18.3082C30.5061 18.6125 30.389 18.9259 30.2703 19.221C30.1517 19.5161 30.0345 19.8112 29.9022 20.1048C29.4236 21.189 28.8873 22.2467 28.2957 23.2736C27.7014 24.3078 27.0472 25.3065 26.3364 26.2644C26.1153 26.5575 25.9241 26.808 25.7629 27.0159C25.5119 27.3201 25.3202 27.5757 25.1544 27.7522C25.1025 27.818 25.0427 27.8773 24.9764 27.9286C24.8426 28.0414 24.6877 28.1263 24.5207 28.1785C24.3537 28.2308 24.1781 28.2492 24.0039 28.2328C23.8297 28.2163 23.6605 28.1654 23.5062 28.0829C23.3519 28.0003 23.2157 27.8879 23.1053 27.7522C22.8847 27.5012 22.693 27.2654 22.4968 27.0159L22.4998 27.0098Z" fill="#38CEC9"/>
</g>
<path d="M61.9899 19.152C62.9324 17.6858 64.5906 16.9527 66.9645 16.9527V20.0684C66.6852 20.016 66.4321 19.9898 66.2052 19.9898C64.931 19.9898 63.9361 20.3651 63.2204 21.1156C62.5048 21.8487 62.147 22.9135 62.147 24.3098V31.0909H58.8743V17.1098H61.9899V19.152Z" fill="#1B1E59"/>
<path d="M82.7562 24.1789C82.7562 24.4058 82.7387 24.7287 82.7038 25.1476H71.7336C71.9256 26.1775 72.4231 26.9978 73.226 27.6087C74.0464 28.2022 75.0587 28.4989 76.2631 28.4989C77.7991 28.4989 79.0645 27.9927 80.0595 26.9804L81.8136 28.9964C81.1853 29.7469 80.3911 30.3142 79.4311 30.6982C78.4711 31.0822 77.3889 31.2742 76.1845 31.2742C74.6485 31.2742 73.2958 30.9687 72.1264 30.3578C70.9569 29.7469 70.0493 28.9004 69.4034 27.8182C68.7751 26.7185 68.4609 25.4793 68.4609 24.1004C68.4609 22.7389 68.7664 21.5171 69.3773 20.4349C70.0056 19.3353 70.8696 18.48 71.9693 17.8691C73.0689 17.2582 74.3082 16.9527 75.6871 16.9527C77.0485 16.9527 78.2616 17.2582 79.3264 17.8691C80.4085 18.4625 81.2464 19.3091 81.8398 20.4087C82.4507 21.4909 82.7562 22.7476 82.7562 24.1789ZM75.6871 19.5709C74.6398 19.5709 73.7496 19.8851 73.0165 20.5135C72.3009 21.1244 71.8645 21.9447 71.7074 22.9745H79.6405C79.5009 21.9622 79.0733 21.1418 78.3576 20.5135C77.642 19.8851 76.7518 19.5709 75.6871 19.5709Z" fill="#1B1E59"/>
<path d="M90.2198 31.2742C89.0853 31.2742 87.9769 31.1258 86.8947 30.8291C85.8126 30.5324 84.9486 30.1571 84.3027 29.7033L85.5595 27.216C86.1878 27.6349 86.9384 27.9753 87.8111 28.2371C88.7013 28.4815 89.574 28.6036 90.4293 28.6036C92.3842 28.6036 93.3617 28.0887 93.3617 27.0589C93.3617 26.5702 93.1086 26.2298 92.6024 26.0378C92.1137 25.8458 91.3195 25.6625 90.2198 25.488C89.0678 25.3135 88.1253 25.1127 87.3922 24.8858C86.6766 24.6589 86.0482 24.2662 85.5071 23.7076C84.9835 23.1316 84.7217 22.3375 84.7217 21.3251C84.7217 19.9985 85.2715 18.9425 86.3711 18.1571C87.4882 17.3542 88.9893 16.9527 90.8744 16.9527C91.8344 16.9527 92.7944 17.0662 93.7544 17.2931C94.7144 17.5025 95.4998 17.7905 96.1107 18.1571L94.854 20.6444C93.6671 19.9462 92.3318 19.5971 90.8482 19.5971C89.8882 19.5971 89.1551 19.7455 88.6489 20.0422C88.1602 20.3215 87.9158 20.6967 87.9158 21.168C87.9158 21.6916 88.1777 22.0669 88.7013 22.2938C89.2424 22.5033 90.0715 22.704 91.1886 22.896C92.3057 23.0705 93.222 23.2713 93.9377 23.4982C94.6533 23.7251 95.2642 24.1091 95.7704 24.6502C96.294 25.1913 96.5558 25.9593 96.5558 26.9542C96.5558 28.2633 95.9886 29.3105 94.854 30.096C93.7195 30.8815 92.1747 31.2742 90.2198 31.2742Z" fill="#1B1E59"/>
<path d="M112.518 24.1789C112.518 24.4058 112.5 24.7287 112.465 25.1476H101.495C101.687 26.1775 102.184 26.9978 102.987 27.6087C103.808 28.2022 104.82 28.4989 106.024 28.4989C107.56 28.4989 108.826 27.9927 109.821 26.9804L111.575 28.9964C110.947 29.7469 110.152 30.3142 109.192 30.6982C108.232 31.0822 107.15 31.2742 105.946 31.2742C104.41 31.2742 103.057 30.9687 101.888 30.3578C100.718 29.7469 99.8106 28.9004 99.1648 27.8182C98.5364 26.7185 98.2223 25.4793 98.2223 24.1004C98.2223 22.7389 98.5277 21.5171 99.1386 20.4349C99.767 19.3353 100.631 18.48 101.731 17.8691C102.83 17.2582 104.07 16.9527 105.448 16.9527C106.81 16.9527 108.023 17.2582 109.088 17.8691C110.17 18.4625 111.008 19.3091 111.601 20.4087C112.212 21.4909 112.518 22.7476 112.518 24.1789ZM105.448 19.5709C104.401 19.5709 103.511 19.8851 102.778 20.5135C102.062 21.1244 101.626 21.9447 101.469 22.9745H109.402C109.262 21.9622 108.835 21.1418 108.119 20.5135C107.403 19.8851 106.513 19.5709 105.448 19.5709Z" fill="#1B1E59"/>
<path d="M122.076 31.2742C120.627 31.2742 119.327 30.9687 118.175 30.3578C117.023 29.7469 116.124 28.9004 115.478 27.8182C114.832 26.7185 114.509 25.4793 114.509 24.1004C114.509 22.7215 114.832 21.4909 115.478 20.4087C116.124 19.3265 117.014 18.48 118.148 17.8691C119.3 17.2582 120.61 16.9527 122.076 16.9527C123.455 16.9527 124.659 17.232 125.689 17.7905C126.736 18.3491 127.522 19.152 128.045 20.1993L125.532 21.6655C125.13 21.0196 124.624 20.5396 124.013 20.2255C123.42 19.8938 122.765 19.728 122.05 19.728C120.828 19.728 119.815 20.1295 119.012 20.9324C118.21 21.7178 117.808 22.7738 117.808 24.1004C117.808 25.4269 118.201 26.4916 118.986 27.2945C119.789 28.08 120.81 28.4727 122.05 28.4727C122.765 28.4727 123.42 28.3156 124.013 28.0015C124.624 27.6698 125.13 27.1811 125.532 26.5353L128.045 28.0015C127.504 29.0487 126.71 29.8604 125.663 30.4364C124.633 30.9949 123.437 31.2742 122.076 31.2742Z" fill="#1B1E59"/>
<path d="M144.41 17.1098V31.0909H141.295V29.3105C140.771 29.9389 140.116 30.4276 139.331 30.7767C138.546 31.1084 137.699 31.2742 136.791 31.2742C134.924 31.2742 133.449 30.7593 132.367 29.7295C131.302 28.6822 130.77 27.1375 130.77 25.0953V17.1098H134.042V24.6502C134.042 25.9069 134.322 26.8495 134.88 27.4778C135.456 28.0887 136.268 28.3942 137.315 28.3942C138.484 28.3942 139.41 28.0364 140.09 27.3207C140.788 26.5876 141.138 25.5404 141.138 24.1789V17.1098H144.41Z" fill="#1B1E59"/>
<path d="M151.811 19.152C152.753 17.6858 154.412 16.9527 156.785 16.9527V20.0684C156.506 20.016 156.253 19.9898 156.026 19.9898C154.752 19.9898 153.757 20.3651 153.041 21.1156C152.326 21.8487 151.968 22.9135 151.968 24.3098V31.0909H148.695V17.1098H151.811V19.152Z" fill="#1B1E59"/>
<path d="M167.312 16.9527C168.673 16.9527 169.886 17.2495 170.951 17.8429C172.033 18.4364 172.88 19.2742 173.49 20.3564C174.101 21.4385 174.407 22.6865 174.407 24.1004C174.407 25.5142 174.101 26.7709 173.49 27.8705C172.88 28.9527 172.033 29.7906 170.951 30.384C169.886 30.9775 168.673 31.2742 167.312 31.2742C166.352 31.2742 165.47 31.1084 164.667 30.7767C163.882 30.4451 163.218 29.9476 162.677 29.2844V31.0909H159.562V11.664H162.834V18.8116C163.393 18.2007 164.048 17.7382 164.798 17.424C165.566 17.1098 166.404 16.9527 167.312 16.9527ZM166.945 28.4727C168.149 28.4727 169.136 28.0713 169.904 27.2684C170.689 26.4655 171.082 25.4095 171.082 24.1004C171.082 22.7913 170.689 21.7353 169.904 20.9324C169.136 20.1295 168.149 19.728 166.945 19.728C166.16 19.728 165.453 19.9113 164.824 20.2778C164.196 20.6269 163.699 21.1331 163.332 21.7964C162.965 22.4596 162.782 23.2276 162.782 24.1004C162.782 24.9731 162.965 25.7411 163.332 26.4044C163.699 27.0676 164.196 27.5825 164.824 27.9491C165.453 28.2982 166.16 28.4727 166.945 28.4727Z" fill="#1B1E59"/>
<defs>
<clipPath id="clip0_2454_20692">
<rect width="48" height="43.6364" fill="white"/>
</clipPath>
</defs>
</svg>
