<svg width="155" height="44" viewBox="0 0 155 44" fill="none" xmlns="http://www.w3.org/2000/svg">
<path d="M52.4813 14.5484C52.4813 22.4029 60.925 23.4633 60.925 29.1185C60.925 31.0822 60.061 31.7891 58.6864 31.7891C57.3119 31.7891 56.4479 31.0822 56.4479 29.1185V27.1549H52.3635V28.8436C52.3635 33.2422 54.5628 35.7556 58.8043 35.7556C63.0457 35.7556 65.245 33.2422 65.245 28.8436C65.245 20.9891 56.8013 19.9287 56.8013 14.2734C56.8013 12.3098 57.5868 11.5636 58.9613 11.5636C60.3359 11.5636 61.1213 12.3098 61.1213 14.2734V15.4124H65.2057V14.5484C65.2057 10.1498 63.0457 7.63635 58.8435 7.63635C54.6413 7.63635 52.4813 10.1498 52.4813 14.5484Z" fill="#15003E"/>
<path d="M71.4967 35.4414H75.8167V26.3302L81.2756 7.95053H77.152L73.8531 20.4785L70.5542 7.95053H66.0378L71.4967 26.3302V35.4414Z" fill="#15003E"/>
<path d="M88.9921 7.95053H82.9834V35.4414H86.7535V16.0014L89.9739 35.4414H94.0583L97.043 15.7265V35.4414H101.127V7.95053H95.1186L92.1732 27.4691L88.9921 7.95053Z" fill="#15003E"/>
<path d="M103.013 11.8778H107.529V35.4414H111.849V11.8778H116.366V7.95053H103.013V11.8778Z" fill="#15003E"/>
<path d="M131.7 35.4414C131.268 34.4204 131.228 33.4385 131.228 32.1033V27.8618C131.228 24.9949 130.521 22.9134 128.361 22.0102C130.286 21.1069 131.189 19.2611 131.189 16.4334V14.2734C131.189 10.032 129.265 7.95053 124.788 7.95053H118.268V35.4414H122.588V24.2487H124.081C126.044 24.2487 126.908 25.1913 126.908 27.744V32.064C126.908 34.3025 127.065 34.7345 127.301 35.4414H131.7ZM124.67 11.8778C126.201 11.8778 126.869 12.7418 126.869 14.7054V17.4153C126.869 19.6145 125.887 20.3214 124.277 20.3214H122.588V11.8778H124.67Z" fill="#15003E"/>
<path d="M134.07 35.4414H138.39V7.95053H134.07V35.4414Z" fill="#15003E"/>
<path d="M149.992 25.1913V29.1185C149.992 31.0822 149.128 31.7891 147.753 31.7891C146.379 31.7891 145.515 31.0822 145.515 29.1185V14.2734C145.515 12.3098 146.379 11.5636 147.753 11.5636C149.128 11.5636 149.992 12.3098 149.992 14.2734V17.2189H154.076V14.5484C154.076 10.1498 151.877 7.63635 147.635 7.63635C143.394 7.63635 141.195 10.1498 141.195 14.5484V28.8436C141.195 33.2422 143.394 35.7556 147.635 35.7556C151.877 35.7556 154.076 33.2422 154.076 28.8436V25.1913H149.992Z" fill="#15003E"/>
<g clip-path="url(#clip0_2454_20691)">
<path fill-rule="evenodd" clip-rule="evenodd" d="M14.8435 13.835L12.4829 17.9162L10.2367 14.02L12.5856 9.93879H28.9926L32.4763 3.8963H9.09898L4.49225 11.8869C7.94805 17.857 11.3985 23.827 14.8435 29.7971H21.8109C20.061 26.768 18.312 23.7395 16.564 20.7114L16.0796 19.8731H32.0476L38.9151 31.7643L32.0476 43.6365H6.85289L0.0558404 31.6498L3.46906 25.7218L5.72985 29.6166L4.50695 31.7496L9.11368 39.7402H29.7883L34.4097 31.7496L29.803 23.759H22.8356C24.3134 26.333 25.7922 28.9065 27.272 31.4795L27.4394 31.7452L26.3163 33.6933H12.5974C8.44473 26.5126 4.29748 19.3372 0.155622 12.1673L0 11.8825L6.85289 -0.00872803H39.2411L31.2563 13.835H14.8435Z" fill="#7F46F0"/>
</g>
<defs>
<clipPath id="clip0_2454_20691">
<rect width="39.2425" height="43.6364" fill="white"/>
</clipPath>
</defs>
</svg>
